<mxfile host="app.diagrams.net" modified="2024-04-17T14:23:51.035Z" agent="Mozilla/5.0 (Windows NT 10.0; Win64; x64) AppleWebKit/537.36 (KHTML, like Gecko) Chrome/123.0.0.0 Safari/537.36" etag="dBpsQ7eQAFGsvpANtvX6" version="24.2.5" type="device">
  <diagram name="Страница — 1" id="TJo14B34cFFJ7qHsZ5_I">
    <mxGraphModel dx="712" dy="775" grid="1" gridSize="10" guides="1" tooltips="1" connect="1" arrows="1" fold="1" page="1" pageScale="1" pageWidth="827" pageHeight="1169" math="0" shadow="0">
      <root>
        <mxCell id="0" />
        <mxCell id="1" parent="0" />
        <mxCell id="DHCZ0wApDoqiZwVVZdu9-14" style="edgeStyle=orthogonalEdgeStyle;rounded=0;orthogonalLoop=1;jettySize=auto;html=1;exitX=0.5;exitY=1;exitDx=0;exitDy=0;" edge="1" parent="1" source="DHCZ0wApDoqiZwVVZdu9-1" target="DHCZ0wApDoqiZwVVZdu9-2">
          <mxGeometry relative="1" as="geometry" />
        </mxCell>
        <mxCell id="DHCZ0wApDoqiZwVVZdu9-1" value="Начало" style="rounded=1;whiteSpace=wrap;html=1;arcSize=50;" vertex="1" parent="1">
          <mxGeometry x="354" y="40" width="120" height="60" as="geometry" />
        </mxCell>
        <mxCell id="DHCZ0wApDoqiZwVVZdu9-15" style="edgeStyle=orthogonalEdgeStyle;rounded=0;orthogonalLoop=1;jettySize=auto;html=1;exitX=0.5;exitY=1;exitDx=0;exitDy=0;entryX=0.5;entryY=0;entryDx=0;entryDy=0;" edge="1" parent="1" source="DHCZ0wApDoqiZwVVZdu9-2" target="DHCZ0wApDoqiZwVVZdu9-3">
          <mxGeometry relative="1" as="geometry" />
        </mxCell>
        <mxCell id="DHCZ0wApDoqiZwVVZdu9-2" value="Ввод текста &lt;b&gt;text&lt;/b&gt;" style="shape=parallelogram;perimeter=parallelogramPerimeter;whiteSpace=wrap;html=1;fixedSize=1;" vertex="1" parent="1">
          <mxGeometry x="354" y="110" width="120" height="40" as="geometry" />
        </mxCell>
        <mxCell id="DHCZ0wApDoqiZwVVZdu9-16" style="edgeStyle=orthogonalEdgeStyle;rounded=0;orthogonalLoop=1;jettySize=auto;html=1;exitX=0.5;exitY=1;exitDx=0;exitDy=0;entryX=0.5;entryY=0;entryDx=0;entryDy=0;" edge="1" parent="1" source="DHCZ0wApDoqiZwVVZdu9-3" target="DHCZ0wApDoqiZwVVZdu9-4">
          <mxGeometry relative="1" as="geometry" />
        </mxCell>
        <mxCell id="DHCZ0wApDoqiZwVVZdu9-3" value="Начало цикла" style="shape=loopLimit;whiteSpace=wrap;html=1;" vertex="1" parent="1">
          <mxGeometry x="364" y="170" width="100" height="50" as="geometry" />
        </mxCell>
        <mxCell id="DHCZ0wApDoqiZwVVZdu9-17" style="edgeStyle=orthogonalEdgeStyle;rounded=0;orthogonalLoop=1;jettySize=auto;html=1;exitX=0.5;exitY=1;exitDx=0;exitDy=0;entryX=0.5;entryY=0;entryDx=0;entryDy=0;" edge="1" parent="1" source="DHCZ0wApDoqiZwVVZdu9-4" target="DHCZ0wApDoqiZwVVZdu9-5">
          <mxGeometry relative="1" as="geometry" />
        </mxCell>
        <mxCell id="DHCZ0wApDoqiZwVVZdu9-4" value="Берём букву из &lt;b&gt;text &lt;/b&gt;с индексом &lt;b&gt;i&lt;/b&gt;" style="rounded=0;whiteSpace=wrap;html=1;" vertex="1" parent="1">
          <mxGeometry x="354" y="240" width="120" height="60" as="geometry" />
        </mxCell>
        <mxCell id="DHCZ0wApDoqiZwVVZdu9-18" style="edgeStyle=orthogonalEdgeStyle;rounded=0;orthogonalLoop=1;jettySize=auto;html=1;exitX=0.5;exitY=1;exitDx=0;exitDy=0;entryX=0.5;entryY=0;entryDx=0;entryDy=0;" edge="1" parent="1" source="DHCZ0wApDoqiZwVVZdu9-5" target="DHCZ0wApDoqiZwVVZdu9-6">
          <mxGeometry relative="1" as="geometry" />
        </mxCell>
        <mxCell id="DHCZ0wApDoqiZwVVZdu9-5" value="Находим&lt;b&gt;&amp;nbsp;ind &lt;/b&gt;= индекс буквы в строке &lt;b&gt;hexnum&lt;/b&gt;" style="rounded=0;whiteSpace=wrap;html=1;" vertex="1" parent="1">
          <mxGeometry x="354" y="310" width="120" height="60" as="geometry" />
        </mxCell>
        <mxCell id="DHCZ0wApDoqiZwVVZdu9-19" style="edgeStyle=orthogonalEdgeStyle;rounded=0;orthogonalLoop=1;jettySize=auto;html=1;exitX=0.5;exitY=1;exitDx=0;exitDy=0;entryX=0.5;entryY=0;entryDx=0;entryDy=0;" edge="1" parent="1" source="DHCZ0wApDoqiZwVVZdu9-6" target="DHCZ0wApDoqiZwVVZdu9-7">
          <mxGeometry relative="1" as="geometry" />
        </mxCell>
        <mxCell id="DHCZ0wApDoqiZwVVZdu9-6" value="Записываем в результат &lt;b&gt;hexnum[s_blocks[i][ind]]&lt;/b&gt;" style="rounded=0;whiteSpace=wrap;html=1;" vertex="1" parent="1">
          <mxGeometry x="354" y="390" width="120" height="60" as="geometry" />
        </mxCell>
        <mxCell id="DHCZ0wApDoqiZwVVZdu9-8" style="edgeStyle=orthogonalEdgeStyle;rounded=0;orthogonalLoop=1;jettySize=auto;html=1;entryX=0;entryY=0.5;entryDx=0;entryDy=0;" edge="1" parent="1" source="DHCZ0wApDoqiZwVVZdu9-7" target="DHCZ0wApDoqiZwVVZdu9-4">
          <mxGeometry relative="1" as="geometry">
            <Array as="points">
              <mxPoint x="334" y="510" />
              <mxPoint x="334" y="270" />
            </Array>
          </mxGeometry>
        </mxCell>
        <mxCell id="DHCZ0wApDoqiZwVVZdu9-13" style="edgeStyle=orthogonalEdgeStyle;rounded=0;orthogonalLoop=1;jettySize=auto;html=1;exitX=0.5;exitY=1;exitDx=0;exitDy=0;entryX=0.5;entryY=0;entryDx=0;entryDy=0;" edge="1" parent="1" source="DHCZ0wApDoqiZwVVZdu9-7" target="DHCZ0wApDoqiZwVVZdu9-12">
          <mxGeometry relative="1" as="geometry" />
        </mxCell>
        <mxCell id="DHCZ0wApDoqiZwVVZdu9-7" value="Последняя буква?" style="rhombus;whiteSpace=wrap;html=1;" vertex="1" parent="1">
          <mxGeometry x="374" y="470" width="80" height="80" as="geometry" />
        </mxCell>
        <mxCell id="DHCZ0wApDoqiZwVVZdu9-9" value="Нет" style="text;html=1;align=center;verticalAlign=middle;whiteSpace=wrap;rounded=0;" vertex="1" parent="1">
          <mxGeometry x="330" y="480" width="60" height="30" as="geometry" />
        </mxCell>
        <mxCell id="DHCZ0wApDoqiZwVVZdu9-37" style="edgeStyle=orthogonalEdgeStyle;rounded=0;orthogonalLoop=1;jettySize=auto;html=1;exitX=0.5;exitY=1;exitDx=0;exitDy=0;entryX=0.5;entryY=0;entryDx=0;entryDy=0;" edge="1" parent="1" source="DHCZ0wApDoqiZwVVZdu9-10" target="DHCZ0wApDoqiZwVVZdu9-22">
          <mxGeometry relative="1" as="geometry" />
        </mxCell>
        <mxCell id="DHCZ0wApDoqiZwVVZdu9-10" value="Выводим результат шифрования" style="rounded=0;whiteSpace=wrap;html=1;" vertex="1" parent="1">
          <mxGeometry x="354" y="620" width="120" height="30" as="geometry" />
        </mxCell>
        <mxCell id="DHCZ0wApDoqiZwVVZdu9-20" style="edgeStyle=orthogonalEdgeStyle;rounded=0;orthogonalLoop=1;jettySize=auto;html=1;exitX=0.5;exitY=0;exitDx=0;exitDy=0;entryX=0.5;entryY=0;entryDx=0;entryDy=0;" edge="1" parent="1" source="DHCZ0wApDoqiZwVVZdu9-11" target="DHCZ0wApDoqiZwVVZdu9-10">
          <mxGeometry relative="1" as="geometry" />
        </mxCell>
        <mxCell id="DHCZ0wApDoqiZwVVZdu9-11" value="" style="shape=loopLimit;whiteSpace=wrap;html=1;rotation=-180;" vertex="1" parent="1">
          <mxGeometry x="364" y="565" width="100" height="40" as="geometry" />
        </mxCell>
        <mxCell id="DHCZ0wApDoqiZwVVZdu9-12" value="Конец цикла" style="text;html=1;align=center;verticalAlign=middle;whiteSpace=wrap;rounded=0;" vertex="1" parent="1">
          <mxGeometry x="364" y="565" width="100" height="30" as="geometry" />
        </mxCell>
        <mxCell id="DHCZ0wApDoqiZwVVZdu9-21" style="edgeStyle=orthogonalEdgeStyle;rounded=0;orthogonalLoop=1;jettySize=auto;html=1;exitX=0.5;exitY=1;exitDx=0;exitDy=0;entryX=0.5;entryY=0;entryDx=0;entryDy=0;" edge="1" parent="1" source="DHCZ0wApDoqiZwVVZdu9-22" target="DHCZ0wApDoqiZwVVZdu9-24">
          <mxGeometry relative="1" as="geometry" />
        </mxCell>
        <mxCell id="DHCZ0wApDoqiZwVVZdu9-22" value="Начало цикла" style="shape=loopLimit;whiteSpace=wrap;html=1;" vertex="1" parent="1">
          <mxGeometry x="364" y="660" width="100" height="50" as="geometry" />
        </mxCell>
        <mxCell id="DHCZ0wApDoqiZwVVZdu9-23" style="edgeStyle=orthogonalEdgeStyle;rounded=0;orthogonalLoop=1;jettySize=auto;html=1;exitX=0.5;exitY=1;exitDx=0;exitDy=0;entryX=0.5;entryY=0;entryDx=0;entryDy=0;" edge="1" parent="1" source="DHCZ0wApDoqiZwVVZdu9-24" target="DHCZ0wApDoqiZwVVZdu9-26">
          <mxGeometry relative="1" as="geometry" />
        </mxCell>
        <mxCell id="DHCZ0wApDoqiZwVVZdu9-24" value="Берём букву из &lt;b&gt;text &lt;/b&gt;с индексом &lt;b&gt;i&lt;/b&gt;" style="rounded=0;whiteSpace=wrap;html=1;" vertex="1" parent="1">
          <mxGeometry x="354" y="730" width="120" height="60" as="geometry" />
        </mxCell>
        <mxCell id="DHCZ0wApDoqiZwVVZdu9-25" style="edgeStyle=orthogonalEdgeStyle;rounded=0;orthogonalLoop=1;jettySize=auto;html=1;exitX=0.5;exitY=1;exitDx=0;exitDy=0;entryX=0.5;entryY=0;entryDx=0;entryDy=0;" edge="1" parent="1" source="DHCZ0wApDoqiZwVVZdu9-26" target="DHCZ0wApDoqiZwVVZdu9-28">
          <mxGeometry relative="1" as="geometry" />
        </mxCell>
        <mxCell id="DHCZ0wApDoqiZwVVZdu9-26" value="Находим&lt;b&gt;&amp;nbsp;ind &lt;/b&gt;= индекс буквы в строке &lt;b&gt;hexnum&lt;/b&gt;" style="rounded=0;whiteSpace=wrap;html=1;" vertex="1" parent="1">
          <mxGeometry x="354" y="800" width="120" height="60" as="geometry" />
        </mxCell>
        <mxCell id="DHCZ0wApDoqiZwVVZdu9-27" style="edgeStyle=orthogonalEdgeStyle;rounded=0;orthogonalLoop=1;jettySize=auto;html=1;exitX=0.5;exitY=1;exitDx=0;exitDy=0;entryX=0.5;entryY=0;entryDx=0;entryDy=0;" edge="1" parent="1" source="DHCZ0wApDoqiZwVVZdu9-28" target="DHCZ0wApDoqiZwVVZdu9-31">
          <mxGeometry relative="1" as="geometry" />
        </mxCell>
        <mxCell id="DHCZ0wApDoqiZwVVZdu9-28" value="Записываем в результат &lt;b&gt;hexnum[s_blocks[i].index(ind)&lt;/b&gt;" style="rounded=0;whiteSpace=wrap;html=1;" vertex="1" parent="1">
          <mxGeometry x="286" y="880" width="256" height="40" as="geometry" />
        </mxCell>
        <mxCell id="DHCZ0wApDoqiZwVVZdu9-29" style="edgeStyle=orthogonalEdgeStyle;rounded=0;orthogonalLoop=1;jettySize=auto;html=1;entryX=0;entryY=0.5;entryDx=0;entryDy=0;" edge="1" parent="1" source="DHCZ0wApDoqiZwVVZdu9-31" target="DHCZ0wApDoqiZwVVZdu9-24">
          <mxGeometry relative="1" as="geometry">
            <Array as="points">
              <mxPoint x="280" y="980" />
              <mxPoint x="280" y="760" />
            </Array>
          </mxGeometry>
        </mxCell>
        <mxCell id="DHCZ0wApDoqiZwVVZdu9-30" style="edgeStyle=orthogonalEdgeStyle;rounded=0;orthogonalLoop=1;jettySize=auto;html=1;exitX=0.5;exitY=1;exitDx=0;exitDy=0;entryX=0.5;entryY=0;entryDx=0;entryDy=0;" edge="1" parent="1" source="DHCZ0wApDoqiZwVVZdu9-31" target="DHCZ0wApDoqiZwVVZdu9-36">
          <mxGeometry relative="1" as="geometry" />
        </mxCell>
        <mxCell id="DHCZ0wApDoqiZwVVZdu9-31" value="Последняя буква?" style="rhombus;whiteSpace=wrap;html=1;" vertex="1" parent="1">
          <mxGeometry x="374" y="940" width="80" height="80" as="geometry" />
        </mxCell>
        <mxCell id="DHCZ0wApDoqiZwVVZdu9-32" value="Нет" style="text;html=1;align=center;verticalAlign=middle;whiteSpace=wrap;rounded=0;" vertex="1" parent="1">
          <mxGeometry x="330" y="950" width="60" height="30" as="geometry" />
        </mxCell>
        <mxCell id="DHCZ0wApDoqiZwVVZdu9-33" value="Выводим результат шифрования" style="rounded=0;whiteSpace=wrap;html=1;" vertex="1" parent="1">
          <mxGeometry x="354" y="1085" width="120" height="30" as="geometry" />
        </mxCell>
        <mxCell id="DHCZ0wApDoqiZwVVZdu9-34" style="edgeStyle=orthogonalEdgeStyle;rounded=0;orthogonalLoop=1;jettySize=auto;html=1;exitX=0.5;exitY=0;exitDx=0;exitDy=0;entryX=0.5;entryY=0;entryDx=0;entryDy=0;" edge="1" parent="1" source="DHCZ0wApDoqiZwVVZdu9-35" target="DHCZ0wApDoqiZwVVZdu9-33">
          <mxGeometry relative="1" as="geometry" />
        </mxCell>
        <mxCell id="DHCZ0wApDoqiZwVVZdu9-35" value="" style="shape=loopLimit;whiteSpace=wrap;html=1;rotation=-180;" vertex="1" parent="1">
          <mxGeometry x="364" y="1030" width="100" height="40" as="geometry" />
        </mxCell>
        <mxCell id="DHCZ0wApDoqiZwVVZdu9-36" value="Конец цикла" style="text;html=1;align=center;verticalAlign=middle;whiteSpace=wrap;rounded=0;" vertex="1" parent="1">
          <mxGeometry x="364" y="1035" width="100" height="30" as="geometry" />
        </mxCell>
      </root>
    </mxGraphModel>
  </diagram>
</mxfile>
